<svg width="1080" height="1080" viewBox="0 0 1080 1080" xmlns="http://www.w3.org/2000/svg">
  <rect width="1080" height="1080" fill="#141410"/>
  <polyline points="60,60 60,120 120,120" fill="none" stroke="#D98C00" stroke-width="2" stroke-opacity="0.4"/>
  <polyline points="1020,60 1020,120 960,120" fill="none" stroke="#D98C00" stroke-width="2" stroke-opacity="0.4"/>
  <polyline points="60,1020 60,960 120,960" fill="none" stroke="#D98C00" stroke-width="2" stroke-opacity="0.4"/>
  <polyline points="1020,1020 1020,960 960,960" fill="none" stroke="#D98C00" stroke-width="2" stroke-opacity="0.4"/>
  <circle cx="540" cy="340" r="210" fill="#D98C00" fill-opacity="0.10"/>
  <circle cx="540" cy="340" r="168" fill="#D98C00"/>
  <path d="M578 188 L468 358 L544 358 L502 492 L612 322 L536 322 Z" fill="#141410"/>
  <line x1="160" y1="598" x2="920" y2="598" stroke="#D98C00" stroke-width="1" stroke-opacity="0.3"/>
  <text x="540" y="700" font-family="'IBM Plex Mono','Courier New',monospace" font-weight="500" font-size="112" letter-spacing="10" text-anchor="middle" fill="#EEEAE0">CHARGED</text>
  <line x1="160" y1="730" x2="920" y2="730" stroke="#D98C00" stroke-width="1" stroke-opacity="0.3"/>
  <text x="540" y="806" font-family="Georgia,'Times New Roman',serif" font-style="italic" font-size="34" text-anchor="middle" fill="#D98C00">Connecting Africa — where money flows</text>
  <text x="540" y="848" font-family="Georgia,'Times New Roman',serif" font-style="italic" font-size="34" text-anchor="middle" fill="#D98C00">and wheels turn.</text>
  <text x="540" y="934" font-family="'IBM Plex Mono','Courier New',monospace" font-size="22" letter-spacing="2" text-anchor="middle" fill="#D98C00" opacity="0.5">AFRICA'S FINTECH &amp; E-MOBILITY RECORD</text>
  <text x="540" y="968" font-family="'IBM Plex Mono','Courier New',monospace" font-size="20" letter-spacing="1.5" text-anchor="middle" fill="#D98C00" opacity="0.4">EVERY MONDAY · DAR ES SALAAM, TANZANIA</text>
</svg>
